HIERARCHY
ROOT joint_Root
{
	OFFSET 0.0 0.0 0.0
	CHANNELS 6 Xposition Yposition Zposition Zrotation Xrotation Yrotation 
	JOINT Hips
	{
		OFFSET 4.5925 91.4895 -427.239
		CHANNELS 6 Xposition Yposition Zposition Zrotation Xrotation Yrotation 
		JOINT Spine
		{
			OFFSET 15.7357 0.0 0.0
			CHANNELS 6 Xposition Yposition Zposition Zrotation Xrotation Yrotation 
			JOINT Chest
			{
				OFFSET 8.98455 -0.406207 0.0
				CHANNELS 6 Xposition Yposition Zposition Zrotation Xrotation Yrotation 
				JOINT Neck
				{
					OFFSET 16.3773 0.0 0.0
					CHANNELS 6 Xposition Yposition Zposition Zrotation Xrotation Yrotation 
					JOINT Head
					{
						OFFSET 6.45672 0.0 0.0
						CHANNELS 6 Xposition Yposition Zposition Zrotation Xrotation Yrotation 
						End Site
						{
							OFFSET 0.0 0.0 0.0
						}
					}
				}
				JOINT Shoulder_L
				{
					OFFSET 12.9942 -0.242716 4.98039
					CHANNELS 6 Xposition Yposition Zposition Zrotation Xrotation Yrotation 
					JOINT UpperArm_L
					{
						OFFSET 5.34809 0.0 0.0
						CHANNELS 6 Xposition Yposition Zposition Zrotation Xrotation Yrotation 
						JOINT LowerArm_L
						{
							OFFSET 24.3286 1.87007e-05 0.0
							CHANNELS 6 Xposition Yposition Zposition Zrotation Xrotation Yrotation 
							JOINT Hand_L
							{
								OFFSET 22.2916 0.0 0.0
								CHANNELS 6 Xposition Yposition Zposition Zrotation Xrotation Yrotation 
								End Site
								{
									OFFSET 0.0 0.0 0.0
								}
							}
						}
					}
				}
				JOINT Shoulder_R
				{
					OFFSET 12.9945 -0.242716 -4.98039
					CHANNELS 6 Xposition Yposition Zposition Zrotation Xrotation Yrotation 
					JOINT UpperArm_R
					{
						OFFSET -5.34813 0.0 0.0
						CHANNELS 6 Xposition Yposition Zposition Zrotation Xrotation Yrotation 
						JOINT LowerArm_R
						{
							OFFSET -24.3289 0.000322201 0.0
							CHANNELS 6 Xposition Yposition Zposition Zrotation Xrotation Yrotation 
							JOINT Hand_R
							{
								OFFSET -22.2915 -0.000108084 0.0
								CHANNELS 6 Xposition Yposition Zposition Zrotation Xrotation Yrotation 
								End Site
								{
									OFFSET 0.0 0.0 0.0
								}
							}
						}
					}
				}
			}
		}
		JOINT UpperLeg_L
		{
			OFFSET -2.19248 -6.46944 0.0
			CHANNELS 6 Xposition Yposition Zposition Zrotation Xrotation Yrotation 
			JOINT LowerLeg_L
			{
				OFFSET 39.0811 0.0 -1.23785e-05
				CHANNELS 6 Xposition Yposition Zposition Zrotation Xrotation Yrotation 
				JOINT Foot_L
				{
					OFFSET 40.9854 0.0 -1.26872e-05
					CHANNELS 6 Xposition Yposition Zposition Zrotation Xrotation Yrotation 
					JOINT Toes_L
					{
						OFFSET 11.7543 0.0 0.0
						CHANNELS 6 Xposition Yposition Zposition Zrotation Xrotation Yrotation 
						End Site
						{
							OFFSET 0.0 0.0 0.0
						}
					}
				}
			}
		}
		JOINT UpperLeg_R
		{
			OFFSET -2.19251 6.46944 0.0
			CHANNELS 6 Xposition Yposition Zposition Zrotation Xrotation Yrotation 
			JOINT LowerLeg_R
			{
				OFFSET -39.0811 -0.00228153 -0.0401928
				CHANNELS 6 Xposition Yposition Zposition Zrotation Xrotation Yrotation 
				JOINT Foot_R
				{
					OFFSET -40.9854 0.0 0.0
					CHANNELS 6 Xposition Yposition Zposition Zrotation Xrotation Yrotation 
					JOINT Toes_R
					{
						OFFSET -11.7543 0.0 0.0
						CHANNELS 6 Xposition Yposition Zposition Zrotation Xrotation Yrotation 
						End Site
						{
							OFFSET 0.0 0.0 0.0
						}
					}
				}
			}
		}
	}
}
MOTION
Frames:	8
Frame Time:	0.0333333
0.000000 0.000000 0.000000 0.000000 0.000000 -0.000000 -0.357265 90.297200 -4.998520 88.545100 -2.842800 9.431080 15.735700 0.000005 -0.000001 86.589200 76.743700 -87.830900 8.984550 -0.406207 -0.000000 18.687900 -1.664040 -2.215460 16.377300 -0.000001 -0.000001 8.859460 -3.298750 1.535620 6.456720 -0.000001 -0.000000 -6.916960 -1.537290 -3.597860 12.994200 -0.242716 4.980390 -91.266400 5.070080 -75.956400 5.348090 -0.000007 -0.000001 -47.971300 40.680500 -35.650800 24.328600 0.000019 0.000005 6.576180 16.857400 -21.679600 22.291600 -0.000001 0.000005 10.817700 5.234080 1.849790 12.994500 -0.242716 -4.980390 89.377200 2.417990 -75.550700 -5.348130 -0.000001 -0.000004 -70.795200 -9.398410 -74.324400 -24.328900 0.000322 -0.000009 21.079200 -10.294800 -114.875000 -22.291500 -0.000108 -0.000004 27.767500 5.320440 -0.508411 -2.192480 -6.469440 -0.000000 -174.464000 -11.080000 -6.538300 39.081100 -0.000007 -0.000012 -0.181269 0.256359 35.264100 40.985400 -0.000006 -0.000013 -0.024304 3.604450 -69.116200 11.754300 -0.000000 0.000003 -0.000130 -0.001286 -16.626600 -2.192510 6.469440 -0.000001 177.022000 18.512400 174.709000 -39.081100 -0.002282 -0.040193 -0.022279 0.037696 34.151900 -40.985400 0.000008 0.000006 6.337560 11.289100 -70.039200 -11.754300 -0.000006 -0.000006 -0.002823 -0.038584 -18.142200
0.000000 0.000000 0.000000 0.000000 0.000000 -0.000000 -0.356007 90.296700 -4.963510 88.544500 -2.832320 9.434040 15.735700 0.000005 -0.000001 86.586500 76.734000 -87.839100 8.984550 -0.406207 -0.000000 18.707000 -1.667580 -2.236550 16.377300 -0.000001 -0.000001 8.919700 -3.249530 1.513500 6.456720 -0.000001 -0.000000 -6.619760 -1.523320 -3.499800 12.994200 -0.242716 4.980390 -91.264300 5.044940 -75.911500 5.348090 -0.000007 -0.000001 -47.867300 40.715100 -35.840400 24.328600 0.000019 0.000005 6.543670 16.818100 -21.625900 22.291600 -0.000001 0.000005 10.813400 5.235860 1.803430 12.994500 -0.242716 -4.980390 89.366400 2.457970 -75.540600 -5.348130 -0.000001 -0.000004 -70.876600 -9.457590 -74.335500 -24.328900 0.000322 -0.000009 21.098400 -10.282500 -114.827000 -22.291500 -0.000108 -0.000004 27.778300 5.320810 -0.519091 -2.192480 -6.469440 -0.000000 -174.455000 -11.094100 -6.515750 39.081100 -0.000007 -0.000012 -0.184565 0.261030 35.263100 40.985400 -0.000006 -0.000013 -0.025459 3.606700 -69.133200 11.754300 -0.000000 0.000003 -0.000130 -0.001289 -16.626700 -2.192510 6.469440 -0.000001 177.017000 18.541000 174.733000 -39.081100 -0.002282 -0.040193 -0.021033 0.035856 34.154600 -40.985400 0.000008 0.000006 6.375620 11.279000 -70.068600 -11.754300 -0.000006 -0.000006 -0.002812 -0.038460 -18.137100
0.000000 0.000000 0.000000 0.000000 0.000000 -0.000000 -0.355895 90.302200 -4.931180 88.551300 -2.827420 9.453050 15.735700 0.000005 -0.000001 86.573800 76.706900 -87.837800 8.984550 -0.406207 -0.000000 18.760500 -1.678040 -2.257010 16.377300 -0.000001 -0.000001 9.024420 -3.209400 1.519430 6.456720 -0.000001 -0.000000 -6.466400 -1.492510 -3.416160 12.994200 -0.242716 4.980390 -91.278200 5.065280 -75.817700 5.348090 -0.000007 -0.000001 -47.651900 40.782200 -36.053700 24.328600 0.000019 0.000005 6.518720 16.678700 -21.709100 22.291600 -0.000001 0.000005 10.836300 5.236240 1.793560 12.994500 -0.242716 -4.980390 89.356600 2.487240 -75.492600 -5.348130 -0.000001 -0.000004 -70.971400 -9.472230 -74.348300 -24.328900 0.000322 -0.000009 20.945800 -10.205200 -114.838000 -22.291500 -0.000108 -0.000004 27.725600 5.322850 -0.577975 -2.192480 -6.469440 -0.000000 -174.462000 -11.071000 -6.451810 39.081100 -0.000007 -0.000012 -0.184424 0.261171 35.227900 40.985400 -0.000006 -0.000013 -0.029055 3.596230 -69.144200 11.754300 -0.000000 0.000003 -0.000148 -0.001439 -16.632300 -2.192510 6.469440 -0.000001 176.992000 18.531500 174.797000 -39.081100 -0.002282 -0.040193 -0.020293 0.034800 34.127000 -40.985400 0.000008 0.000006 6.394380 11.288100 -70.088900 -11.754300 -0.000006 -0.000006 -0.002622 -0.036244 -18.047000
0.000000 0.000000 0.000000 0.000000 0.000000 -0.000000 -0.346660 90.303800 -4.903780 88.555200 -2.865750 9.442630 15.735700 0.000005 -0.000001 86.571900 76.680200 -87.845800 8.984550 -0.406207 -0.000000 18.813600 -1.683400 -2.275230 16.377300 -0.000001 -0.000001 9.079750 -3.175400 1.523330 6.456720 -0.000001 -0.000000 -6.341500 -1.489830 -3.360820 12.994200 -0.242716 4.980390 -91.293500 5.100240 -75.748200 5.348090 -0.000007 -0.000001 -47.657000 40.657300 -36.034100 24.328600 0.000019 0.000005 6.648340 16.819400 -21.940600 22.291600 -0.000001 0.000005 10.843800 5.234550 1.837540 12.994500 -0.242716 -4.980390 89.345800 2.523290 -75.459600 -5.348130 -0.000001 -0.000004 -70.951000 -9.470230 -74.405000 -24.328900 0.000322 -0.000009 20.914900 -10.168100 -114.794000 -22.291500 -0.000108 -0.000004 27.811700 5.321370 -0.535434 -2.192480 -6.469440 -0.000000 -174.465000 -11.087500 -6.429530 39.081100 -0.000007 -0.000012 -0.185524 0.262858 35.214700 40.985400 -0.000006 -0.000013 -0.035963 3.570440 -69.161000 11.754300 -0.000000 0.000003 -0.000131 -0.001291 -16.626800 -2.192510 6.469440 -0.000001 176.973000 18.545300 174.806000 -39.081100 -0.002282 -0.040193 -0.020016 0.034407 34.114700 -40.985400 0.000008 0.000006 6.377910 11.363400 -70.093700 -11.754300 -0.000006 -0.000006 -0.002724 -0.037438 -18.095600
0.000000 0.000000 0.000000 0.000000 0.000000 -0.000000 -0.342328 90.304700 -4.893080 88.545600 -2.893980 9.441410 15.735700 0.000005 -0.000001 86.552100 76.647900 -87.825200 8.984550 -0.406207 -0.000000 18.877600 -1.696600 -2.270480 16.377300 -0.000001 -0.000001 9.103260 -3.124320 1.561620 6.456720 -0.000001 -0.000000 -6.310300 -1.449550 -3.386470 12.994200 -0.242716 4.980390 -91.302400 5.120920 -75.709900 5.348090 -0.000007 -0.000001 -47.631200 40.608500 -36.017500 24.328600 0.000019 0.000005 6.653050 16.693500 -22.100100 22.291600 -0.000001 0.000005 10.842000 5.237670 1.756440 12.994500 -0.242716 -4.980390 89.345400 2.516120 -75.411900 -5.348130 -0.000001 -0.000004 -70.951100 -9.440690 -74.464400 -24.328900 0.000322 -0.000009 20.883600 -10.122900 -114.734000 -22.291500 -0.000108 -0.000004 27.784100 5.323660 -0.601452 -2.192480 -6.469440 -0.000000 -174.452000 -11.093400 -6.418670 39.081100 -0.000007 -0.000012 -0.185739 0.263173 35.213600 40.985400 -0.000006 -0.000013 -0.038146 3.568040 -69.170000 11.754300 -0.000000 0.000003 -0.000142 -0.001389 -16.630400 -2.192510 6.469440 -0.000001 176.986000 18.510500 174.815000 -39.081100 -0.002282 -0.040193 -0.020286 0.034811 34.112100 -40.985400 0.000008 0.000006 6.443970 11.346800 -70.116400 -11.754300 -0.000006 -0.000006 -0.002797 -0.038287 -18.130100
0.000000 0.000000 0.000000 0.000000 0.000000 -0.000000 -0.336244 90.303900 -4.892430 88.540300 -2.926940 9.441480 15.735700 0.000005 -0.000001 86.506600 76.615000 -87.779200 8.984550 -0.406207 -0.000000 18.941900 -1.721730 -2.264370 16.377300 -0.000001 -0.000001 9.099910 -3.104550 1.536270 6.456720 -0.000001 -0.000000 -6.368300 -1.346750 -3.352040 12.994200 -0.242716 4.980390 -91.311800 5.143530 -75.671200 5.348090 -0.000007 -0.000001 -47.464300 40.686900 -36.092700 24.328600 0.000019 0.000005 6.684830 16.706600 -22.181100 22.291600 -0.000001 0.000005 10.773800 5.235090 1.823450 12.994500 -0.242716 -4.980390 89.341800 2.525980 -75.391000 -5.348130 -0.000001 -0.000004 -70.883300 -9.406230 -74.539100 -24.328900 0.000322 -0.000009 21.051700 -10.157400 -114.616000 -22.291500 -0.000108 -0.000004 27.755100 5.320550 -0.511813 -2.192480 -6.469440 -0.000000 -174.445000 -11.112400 -6.417480 39.081100 -0.000007 -0.000012 -0.185876 0.263302 35.220300 40.985400 -0.000006 -0.000013 -0.041209 3.552060 -69.175000 11.754300 -0.000000 0.000003 -0.000128 -0.001270 -16.626000 -2.192510 6.469440 -0.000001 176.992000 18.479200 174.815000 -39.081100 -0.002282 -0.040193 -0.018917 0.032797 34.105600 -40.985400 0.000008 0.000006 6.374420 11.345400 -70.094600 -11.754300 -0.000006 -0.000006 -0.002923 -0.039733 -18.189000
0.000000 0.000000 0.000000 0.000000 0.000000 -0.000000 -0.325658 90.305900 -4.898160 88.551100 -2.947140 9.429140 15.735700 0.000005 -0.000001 86.441300 76.594300 -87.715600 8.984550 -0.406207 -0.000000 18.981200 -1.754580 -2.261960 16.377300 -0.000001 -0.000001 9.025400 -3.067840 1.549060 6.456720 -0.000001 -0.000000 -6.331050 -1.262350 -3.375570 12.994200 -0.242716 4.980390 -91.313000 5.139590 -75.649000 5.348090 -0.000007 -0.000001 -47.351500 40.803600 -36.182000 24.328600 0.000019 0.000005 6.629340 16.672700 -22.052400 22.291600 -0.000001 0.000005 10.796700 5.236640 1.783230 12.994500 -0.242716 -4.980390 89.332300 2.558580 -75.369800 -5.348130 -0.000001 -0.000004 -70.800900 -9.362620 -74.569200 -24.328900 0.000322 -0.000009 20.993800 -10.066000 -114.488000 -22.291500 -0.000108 -0.000004 27.804300 5.322920 -0.580256 -2.192480 -6.469440 -0.000000 -174.468000 -11.138100 -6.418200 39.081100 -0.000007 -0.000012 -0.185918 0.263485 35.207600 40.985400 -0.000006 -0.000013 -0.030502 3.542150 -69.174900 11.754300 -0.000000 0.000003 -0.000140 -0.001374 -16.629900 -2.192510 6.469440 -0.000001 176.976000 18.478100 174.799000 -39.081100 -0.002282 -0.040193 -0.019648 0.033887 34.097400 -40.985400 0.000008 0.000006 6.326690 11.372700 -70.073700 -11.754300 -0.000006 -0.000006 -0.002931 -0.039816 -18.192400
0.000000 0.000000 0.000000 0.000000 0.000000 -0.000000 -0.313464 90.312800 -4.905590 88.583300 -2.965900 9.394260 15.735700 0.000005 -0.000001 86.384400 76.581600 -87.664000 8.984550 -0.406207 -0.000000 19.004700 -1.782880 -2.267420 16.377300 -0.000001 -0.000001 8.960800 -3.023420 1.535650 6.456720 -0.000001 -0.000000 -6.319470 -1.208030 -3.350030 12.994200 -0.242716 4.980390 -91.305000 5.118300 -75.675400 5.348090 -0.000007 -0.000001 -47.430600 40.803600 -36.154300 24.328600 0.000019 0.000005 6.630610 16.821900 -21.884200 22.291600 -0.000001 0.000005 10.786800 5.234490 1.839210 12.994500 -0.242716 -4.980390 89.332900 2.561110 -75.396100 -5.348130 -0.000001 -0.000004 -70.760900 -9.344880 -74.501300 -24.328900 0.000322 -0.000009 20.959500 -9.999880 -114.386000 -22.291500 -0.000108 -0.000004 27.827800 5.322550 -0.569415 -2.192480 -6.469440 -0.000000 -174.517000 -11.196700 -6.441170 39.081100 -0.000007 -0.000012 -0.183671 0.260715 35.164700 40.985400 -0.000006 -0.000013 -0.017492 3.530790 -69.144900 11.754300 -0.000000 0.000003 -0.000137 -0.001344 -16.628800 -2.192510 6.469440 -0.000001 176.947000 18.474500 174.757000 -39.081100 -0.002282 -0.040193 -0.023057 0.038945 34.082100 -40.985400 0.000008 0.000006 6.300640 11.388600 -70.048900 -11.754300 -0.000006 -0.000006 -0.002677 -0.036896 -18.073500
